<svg width="392" height="100" viewBox="0 0 392 100" fill="none" xmlns="http://www.w3.org/2000/svg">
<g clip-path="url(#clip0_2914_14745)">
<path d="M168.038 89.7578H0V99.3476H168.038V89.7578Z" fill="#0129F3"/>
<path d="M299.984 0H170.266V9.58974H299.984V0Z" fill="#0129F3"/>
<path d="M88.1701 56.8489H77.1572L82.7085 41.0155L88.1701 56.8489ZM77.5803 23.4258L57.5547 75.9514H70.388L74.0803 66.4642H91.2726L95.2598 75.9514H107.926L87.7213 23.4258H77.5931H77.5803Z" fill="#0129F3"/>
<path d="M184.569 56.8489H173.556L179.107 41.1053L184.569 56.8489ZM173.979 23.4258L153.953 75.9514H166.786L170.479 66.4642H187.658L191.645 75.9514H204.312L184.107 23.4258H173.979Z" fill="#0129F3"/>
<path d="M122.944 34.2324H133.304C134.38 34.2324 139.419 35.3478 139.419 40.7068C139.419 46.0658 134.342 47.194 133.304 47.194H122.944V34.2324ZM122.944 75.9504V57.9375H127.829L137.227 75.9504H150.855L139.868 56.5914C139.868 56.5914 151.316 52.8093 151.316 40.7452C151.316 23.2837 134.124 23.4375 128.637 23.4375H111.547V75.9504H122.944Z" fill="#0129F3"/>
<path d="M273.541 65.1053V55.054H298.22V44.3104H273.541V34.2463H299.964V23.4258H262.156V75.9514H299.964V65.1053H273.541Z" fill="#0129F3"/>
<path d="M29.4872 56.1816H42.5897C41.4359 60.3483 36.0128 65.5149 28.0897 65.5149C19.5641 65.5149 12.0256 58.9636 12.0256 49.6688C12.0256 40.3739 19.5256 33.3867 28.5513 33.3867C36.2179 33.3867 40.9359 39.3226 40.9359 39.3226L49.8974 32.3226C49.8974 32.3226 42.9744 21.8867 28.141 21.8867C11.9744 21.8995 0 34.3867 0 50.0662C0 65.7457 12.3462 77.2457 27.5256 77.2457C36.7692 77.2457 41.5897 74.1431 44.3205 71.5406V75.938H54.0641V45.8867H29.4744V56.1816H29.4872Z" fill="#0129F3"/>
<path d="M231.513 56.1816H244.616C243.462 60.3483 238.039 65.5149 230.116 65.5149C221.59 65.5149 214.052 58.9636 214.052 49.6688C214.052 40.3739 221.552 33.3867 230.578 33.3867C238.257 33.3867 242.962 39.3226 242.962 39.3226L251.924 32.3226C251.924 32.3226 245.001 21.8867 230.167 21.8867C214.001 21.8867 202.039 34.3739 202.039 50.0534C202.039 65.7329 214.385 77.2329 229.578 77.2329C238.821 77.2329 243.642 74.1303 246.372 71.5277V75.9252H256.116V45.8739H231.526V56.1688L231.513 56.1816Z" fill="#0129F3"/>
<path fill-rule="evenodd" clip-rule="evenodd" d="M329.483 50.7199C329.266 43.278 331.547 36.7316 337.889 30.2761C343.508 24.5647 351.907 22.2929 360.934 23.2997L360.357 30.1279C353.269 29.3426 346.779 31.0414 342.53 35.3652C337.401 40.594 336.031 45.3404 336.208 50.7911C336.317 60.3145 344.914 67.9384 354.281 68.0502C363.64 68.1518 371.266 60.4998 371.157 50.9763L371.088 46.4811L363.785 53.9018L359.125 49.1547L374.18 33.8304L374.64 33.8404L389.943 49.4198L385.381 54.0653L377.999 46.5623L378.069 51.0576C378.217 64.5634 367.626 75.7449 354.361 75.5925C341.096 75.44 329.826 63.0591 329.472 50.7299" fill="#0129F3"/>
</g>
<defs>
<clipPath id="clip0_2914_14745">
<rect width="391.026" height="100" fill="white"/>
</clipPath>
</defs>
</svg>
